<svg width="512" height="512" viewBox="0 0 512 512" fill="none" xmlns="http://www.w3.org/2000/svg">
<g clip-path="url(#clip0_19_4)">
<path d="M439.609 0H72.3911C32.4106 0 0 32.4106 0 72.3911V439.609C0 479.589 32.4106 512 72.3911 512H439.609C479.589 512 512 479.589 512 439.609V72.3911C512 32.4106 479.589 0 439.609 0Z" fill="#1D174C"/>
<path d="M390.092 139.899C389.547 129.73 384.735 121.079 376.913 116.148C369.114 111.241 359.277 110.673 349.938 114.56C341.641 118.021 335.573 124.492 331.354 134.353C327.064 144.427 326.092 155.093 325.333 163.65C324.48 173.061 323.318 180.788 320.284 187.781C305.541 221.961 262.139 322.987 262.139 322.987C248.96 353.683 215.656 369.47 184.699 359.704C169.908 355.034 161.944 346.833 159.621 333.89C158.104 325.381 160.379 316.776 162.821 309.499C163.911 306.276 165.215 303.147 166.779 300.136C167.893 301.108 181.547 308.527 181.547 308.527C181.547 308.527 196.693 253.772 206.436 231.396L226.015 186.501C226.015 186.501 154.667 257.256 146.797 266.24C129.683 285.748 121.292 307.484 121.837 330.856C122.501 358.661 135.277 378.667 159.81 390.329C172.113 396.184 184.77 399.36 197.713 399.881C206.554 400.237 215.514 399.336 224.545 397.203C257.375 389.404 281.244 368.711 295.467 335.716C301.559 321.541 340.196 231.633 353.564 200.936C355.603 196.243 359.253 191.716 361.79 188.705C363.947 186.169 366.625 183.775 369.446 181.215C371.129 179.698 372.812 178.181 374.424 176.616C385.707 165.689 390.827 153.671 390.092 139.876V139.899ZM367.929 147.532C367.147 150.116 366.151 152.462 364.587 154.501C362.287 157.511 358.068 162.086 354.821 165.452C353.304 167.04 350.625 165.855 350.767 163.674C351.099 158.104 351.455 152.296 352.261 147.058C352.853 143.194 353.873 140.279 356.385 137.268C359.846 133.144 365.653 133.665 367.431 138.169C368.521 140.966 368.735 144.948 367.929 147.532Z" fill="white"/>
</g>
<defs>
<clipPath id="clip0_19_4">
<rect width="512" height="512" fill="white"/>
</clipPath>
</defs>
</svg>
